<svg xmlns="http://www.w3.org/2000/svg" xmlns:xlink="http://www.w3.org/1999/xlink" width="500" zoomAndPan="magnify" viewBox="0 0 375 374.999991" height="500" preserveAspectRatio="xMidYMid meet" version="1.0"><defs><g/></defs><g fill="#000000" fill-opacity="1"><g transform="translate(-9.322606, 300.802546)"><g><path d="M 115.75 0 L 85.125 -90.921875 L 69.96875 -90.921875 L 69.96875 0 L 20.3125 0 L 20.3125 -228.28125 L 93.5 -228.28125 C 115.644531 -228.28125 132.84375 -222.53125 145.09375 -211.03125 C 157.34375 -199.53125 163.46875 -182.382812 163.46875 -159.59375 C 163.46875 -151.21875 162.5 -143.695312 160.5625 -137.03125 C 158.632812 -130.363281 156.109375 -124.664062 152.984375 -119.9375 C 149.867188 -115.207031 146.375 -111.335938 142.5 -108.328125 C 138.632812 -105.316406 134.875 -103.171875 131.21875 -101.890625 L 170.234375 0 Z M 112.53125 -156.703125 C 112.53125 -162.503906 111.722656 -167.226562 110.109375 -170.875 C 108.492188 -174.53125 106.394531 -177.429688 103.8125 -179.578125 C 101.238281 -181.734375 98.390625 -183.1875 95.265625 -183.9375 C 92.148438 -184.6875 89.09375 -185.0625 86.09375 -185.0625 L 69.96875 -185.0625 L 69.96875 -127.359375 L 85.125 -127.359375 C 92.425781 -127.359375 98.816406 -129.664062 104.296875 -134.28125 C 109.785156 -138.90625 112.53125 -146.378906 112.53125 -156.703125 Z M 112.53125 -156.703125 "/></g></g></g><g fill="#000000" fill-opacity="1"><g transform="translate(165.104988, 300.802546)"><g><path d="M 97.046875 0 C 83.503906 0 71.410156 -2.628906 60.765625 -7.890625 C 50.128906 -13.160156 41.101562 -20.738281 33.6875 -30.625 C 26.269531 -40.519531 20.628906 -52.613281 16.765625 -66.90625 C 12.898438 -81.195312 10.96875 -97.367188 10.96875 -115.421875 C 10.96875 -133.484375 13.007812 -149.820312 17.09375 -164.4375 C 21.175781 -179.050781 27.03125 -191.515625 34.65625 -201.828125 C 42.289062 -212.148438 51.535156 -220.160156 62.390625 -225.859375 C 73.242188 -231.554688 85.332031 -234.40625 98.65625 -234.40625 C 112.195312 -234.40625 124.34375 -231.554688 135.09375 -225.859375 C 145.84375 -220.160156 154.976562 -212.207031 162.5 -202 C 170.019531 -191.789062 175.769531 -179.535156 179.75 -165.234375 C 183.726562 -150.941406 185.71875 -135.09375 185.71875 -117.6875 C 185.71875 -109.945312 185.019531 -102.257812 183.625 -94.625 C 182.226562 -87 180.398438 -79.851562 178.140625 -73.1875 C 175.878906 -66.519531 173.242188 -60.710938 170.234375 -55.765625 C 167.222656 -50.828125 164.109375 -47.070312 160.890625 -44.5 L 160.890625 -43.203125 L 197.328125 -44.5 L 197.328125 0 Z M 133.8125 -115.421875 C 133.8125 -125.097656 133.054688 -134.125 131.546875 -142.5 C 130.046875 -150.882812 127.84375 -158.140625 124.9375 -164.265625 C 122.03125 -170.398438 118.375 -175.1875 113.96875 -178.625 C 109.5625 -182.0625 104.566406 -183.78125 98.984375 -183.78125 C 93.179688 -183.78125 88.078125 -182.0625 83.671875 -178.625 C 79.265625 -175.1875 75.609375 -170.398438 72.703125 -164.265625 C 69.804688 -158.140625 67.601562 -150.941406 66.09375 -142.671875 C 64.59375 -134.398438 63.84375 -125.316406 63.84375 -115.421875 C 63.84375 -105.753906 64.59375 -96.726562 66.09375 -88.34375 C 67.601562 -79.957031 69.804688 -72.703125 72.703125 -66.578125 C 75.609375 -60.453125 79.265625 -55.613281 83.671875 -52.0625 C 88.078125 -48.519531 93.179688 -46.75 98.984375 -46.75 C 104.785156 -46.75 109.890625 -48.578125 114.296875 -52.234375 C 118.703125 -55.890625 122.351562 -60.832031 125.25 -67.0625 C 128.15625 -73.289062 130.304688 -80.539062 131.703125 -88.8125 C 133.109375 -97.09375 133.8125 -105.960938 133.8125 -115.421875 Z M 133.8125 -115.421875 "/></g></g></g></svg>